<svg width="48" height="48" viewBox="0 0 48 48" fill="none" xmlns="http://www.w3.org/2000/svg">
<g clip-path="url(#clip0_491_73)">
<g clip-path="url(#clip1_491_73)">
<path fill-rule="evenodd" clip-rule="evenodd" d="M6 8.25C6 4.93629 8.68629 2.25 12 2.25H28.5L37.5 12.75V39.75C37.5 43.0637 34.8137 45.75 31.5 45.75H12C8.68629 45.75 6 43.0637 6 39.75V8.25Z" fill="#FFF9F9"/>
<path fill-rule="evenodd" clip-rule="evenodd" d="M24.75 37.5C24.75 42.471 28.779 46.5 33.75 46.5C38.721 46.5 42.75 42.471 42.75 37.5C42.75 32.529 38.721 28.5 33.75 28.5C28.779 28.5 24.75 32.529 24.75 37.5Z" fill="#DC3626"/>
<path fill-rule="evenodd" clip-rule="evenodd" d="M35.7426 34.624C35.9898 34.4406 36.3406 34.4606 36.5649 34.6845C36.8115 34.9312 36.8115 35.3315 36.5649 35.5781L34.643 37.5L36.5649 39.4219C36.8115 39.6685 36.8115 40.0688 36.5649 40.3154C36.3406 40.5394 35.9898 40.5593 35.7426 40.376L35.6713 40.3154L33.7494 38.3935L31.8285 40.3154L31.7573 40.376C31.5101 40.5593 31.1592 40.5394 30.935 40.3154C30.6883 40.0688 30.6884 39.6685 30.935 39.4219L32.8559 37.5L30.935 35.5781C30.6883 35.3315 30.6883 34.9312 30.935 34.6845C31.1592 34.4605 31.5101 34.4406 31.7573 34.624L31.8285 34.6845L33.7494 36.6054L35.6713 34.6845L35.7426 34.624Z" fill="white"/>
<path fill-rule="evenodd" clip-rule="evenodd" d="M28.5 2.25L37.5 12.75H33.5C30.7386 12.75 28.5 10.5114 28.5 7.75L28.5 2.25Z" fill="#DC3626"/>
</g>
</g>
<defs>
<clipPath id="clip0_491_73">
<rect width="48" height="48" fill="white"/>
</clipPath>
<clipPath id="clip1_491_73">
<rect width="48" height="48" fill="white"/>
</clipPath>
</defs>
</svg>
