<svg width="24" height="24" viewBox="0 0 24 24" fill="none" xmlns="http://www.w3.org/2000/svg">
<path d="M18 3C19.6569 3 21 4.34315 21 6V18C21 19.6569 19.6569 21 18 21H6C4.34315 21 3 19.6569 3 18V6C3 4.34315 4.34315 3 6 3H18ZM6 4.40039C5.16544 4.40039 4.47982 5.03909 4.40625 5.85449L4.40039 6V18C4.40039 18.8346 5.03909 19.5202 5.85449 19.5938L6 19.5996H18C18.8346 19.5996 19.5202 18.9609 19.5938 18.1455L19.5996 18V6C19.5996 5.16544 18.9609 4.47982 18.1455 4.40625L18 4.40039H6Z" fill="#3C4A57"/>
<path d="M15.8838 14.6758V11H17.1494V16.6875H15.8799L13.7314 13.0117V16.6875H12.458V11H13.7314L15.8838 14.6758ZM9.48145 9.53125L10.6025 7H11.9775L10.1299 10.6328V12.6875H8.83691V10.6328L6.98535 7H8.36816L9.48145 9.53125Z" fill="#3C4A57"/>
</svg>
