<svg width="24" height="24" viewBox="0 0 24 24" fill="none" xmlns="http://www.w3.org/2000/svg">
<path d="M14.541 9.53778L19.616 9.98478C19.891 10.0098 20.001 10.3498 19.794 10.5308L15.951 13.8768C15.864 13.9528 15.826 14.0698 15.852 14.1818L16.994 19.1478C17.056 19.4158 16.766 19.6258 16.53 19.4848L12.16 16.8628C12.062 16.8038 11.938 16.8038 11.84 16.8628L7.47104 19.4848C7.23404 19.6258 6.94504 19.4158 7.00704 19.1478L8.14804 14.1818C8.17504 14.0698 8.13704 13.9528 8.05004 13.8768L4.20604 10.5308C3.99904 10.3498 4.10904 10.0098 4.38404 9.98478L9.46004 9.53778C9.57404 9.52778 9.67404 9.45478 9.71904 9.34978L11.713 4.65978C11.82 4.40678 12.179 4.40678 12.287 4.65978L14.281 9.34978C14.326 9.45478 14.426 9.52778 14.541 9.53778Z" fill="#3C4A57"/>
</svg>
