<svg width="16" height="16" viewBox="0 0 16 16" fill="none" xmlns="http://www.w3.org/2000/svg">
<path d="M7.12695 2.16504C8.20734 2.00339 9.30725 2.14544 10.3057 2.56934L7.55566 7.5625C7.29911 8.02888 7.63664 8.59939 8.16895 8.59961H13.8682C13.7579 9.67892 13.3524 10.7115 12.6895 11.5801C11.9045 12.6083 10.8035 13.3503 9.55566 13.6914C8.30778 14.0325 6.9821 13.9538 5.7832 13.4678C4.58437 12.9817 3.57897 12.1147 2.9209 11.001C2.26283 9.8872 1.98892 8.58833 2.1416 7.30371C2.29429 6.01905 2.86478 4.82011 3.76562 3.8916C4.66646 2.96314 5.84754 2.35649 7.12695 2.16504Z" stroke="#3C4A57" stroke-width="1.2"/>
<path d="M11.8969 3.57169C12.3682 3.98648 12.7724 4.47378 13.0912 5.01797C13.407 5.5572 13.6332 6.14242 13.765 6.7504H10.0238L11.8969 3.57169Z" stroke="#3C4A57" stroke-width="1.2"/>
</svg>
